<svg width="30" height="30" viewBox="0 0 30 30" fill="none" xmlns="http://www.w3.org/2000/svg">
<g opacity="0.75" clip-path="url(#clip0_90_9)">
<path d="M12.5372 21.368L13.3905 21.2213C13.5558 21.1929 13.7527 21.1493 13.9812 21.0906C16.7998 20.384 18.6665 18.2773 18.6665 16C18.6665 13.1533 15.7652 10.6666 11.9998 10.6666C8.2345 10.6666 5.33317 13.1533 5.33317 16C5.33317 17.624 6.26917 19.1706 7.90784 20.2L7.95584 20.2266L9.33317 20.9866V24.6706L12.5372 21.368ZM13.8465 23.848L8.95717 28.888C8.77239 29.0786 8.53493 29.2097 8.27518 29.2645C8.01544 29.3193 7.74524 29.2954 7.4992 29.1957C7.25315 29.096 7.04247 28.9251 6.89412 28.705C6.74577 28.4848 6.66651 28.2254 6.6665 27.96V22.56L6.4905 22.4586C4.17184 21.0026 2.6665 18.652 2.6665 16C2.6665 11.5813 6.84517 7.99996 11.9998 7.99996C17.1545 7.99996 21.3332 11.5813 21.3332 16C21.3332 19.6346 18.5052 22.704 14.6318 23.6773C14.3723 23.744 14.1103 23.801 13.8465 23.848ZM11.9145 6.66663C13.5278 4.27596 16.5465 2.66663 19.9998 2.66663C25.1545 2.66663 29.3332 6.24796 29.3332 10.6666C29.3332 13.3186 27.8265 15.6693 25.5092 17.1253L25.3332 17.2266V22.6266C25.3332 22.8921 25.2539 23.1515 25.1056 23.3717C24.9572 23.5918 24.7465 23.7627 24.5005 23.8623C24.2544 23.962 23.9842 23.986 23.7245 23.9312C23.4647 23.8763 23.2273 23.7452 23.0425 23.5546L20.7292 21.1706L22.1198 18.7733L22.6665 19.3373V15.6533L24.0438 14.8933L24.0918 14.8666C25.7318 13.8373 26.6665 12.2906 26.6665 10.6666C26.6665 7.81996 23.7652 5.33329 19.9998 5.33329C18.2932 5.33329 16.7652 5.84396 15.6038 6.66663H11.9145Z" fill="#333333"/>
</g>
<defs>
<clipPath id="clip0_90_9">
<rect width="30" height="30" fill="white"/>
</clipPath>
</defs>
</svg>
