<svg width="20" height="20" viewBox="0 0 20 20" fill="none" xmlns="http://www.w3.org/2000/svg">
<g clip-path="url(#clip0_489_1695)">
<path fill-rule="evenodd" clip-rule="evenodd" d="M10.8837 13.3833C10.6494 13.6174 10.3317 13.7489 10.0004 13.7489C9.66915 13.7489 9.35145 13.6174 9.11707 13.3833L4.40207 8.66999C4.16769 8.43549 4.03605 8.11749 4.03613 7.78594C4.03621 7.4544 4.16799 7.13646 4.40249 6.90207C4.63698 6.66769 4.95498 6.53605 5.28653 6.53613C5.61808 6.53621 5.93602 6.66799 6.1704 6.90249L10.0004 10.7325L13.8304 6.90249C14.0661 6.67468 14.3817 6.54853 14.7095 6.55123C15.0372 6.55392 15.3508 6.68523 15.5827 6.91688C15.8146 7.14854 15.9462 7.46199 15.9492 7.78974C15.9522 8.11748 15.8263 8.4333 15.5987 8.66916L10.8846 13.3842L10.8837 13.3833Z" fill="#808080"/>
</g>
<defs>
<clipPath id="clip0_489_1695">
<rect width="20" height="20" fill="white"/>
</clipPath>
</defs>
</svg>
