<svg width="28" height="28" viewBox="0 0 28 28" fill="none" xmlns="http://www.w3.org/2000/svg">
<g opacity="0.75">
<path d="M14 25.6667L13.7083 22.1667H13.4167C10.6556 22.1667 8.3125 21.2042 6.3875 19.2792C4.4625 17.3542 3.5 15.0112 3.5 12.25C3.5 9.48893 4.4625 7.14587 6.3875 5.22087C8.3125 3.29587 10.6556 2.33337 13.4167 2.33337C14.7972 2.33337 16.0856 2.59082 17.2818 3.10571C18.4781 3.6206 19.5281 4.33032 20.4318 5.23487C21.3356 6.13943 22.0449 7.18943 22.5598 8.38487C23.0747 9.58032 23.3326 10.8687 23.3333 12.25C23.3333 13.7084 23.0953 15.1084 22.6193 16.45C22.1433 17.7917 21.4916 19.0362 20.664 20.1834C19.8364 21.3306 18.8545 22.3709 17.7182 23.3042C16.5818 24.2375 15.3424 25.025 14 25.6667ZM16.3333 21.4084C17.7139 20.2417 18.837 18.8759 19.7027 17.311C20.5683 15.7462 21.0008 14.0592 21 12.25C21 10.1306 20.2658 8.33704 18.7973 6.86937C17.3289 5.40171 15.5353 4.66749 13.4167 4.66671C11.298 4.66593 9.50444 5.40015 8.036 6.86937C6.56756 8.3386 5.83333 10.1322 5.83333 12.25C5.83333 14.3679 6.56756 16.1619 8.036 17.6319C9.50444 19.1019 11.298 19.8357 13.4167 19.8334H16.3333V21.4084ZM13.3875 18.6375C13.7181 18.6375 14 18.5209 14.2333 18.2875C14.4667 18.0542 14.5833 17.7723 14.5833 17.4417C14.5833 17.1112 14.4667 16.8292 14.2333 16.5959C14 16.3625 13.7181 16.2459 13.3875 16.2459C13.0569 16.2459 12.775 16.3625 12.5417 16.5959C12.3083 16.8292 12.1917 17.1112 12.1917 17.4417C12.1917 17.7723 12.3083 18.0542 12.5417 18.2875C12.775 18.5209 13.0569 18.6375 13.3875 18.6375ZM12.5417 14.9334H14.2917C14.2917 14.35 14.35 13.9417 14.4667 13.7084C14.5833 13.475 14.9528 13.0473 15.575 12.425C15.925 12.075 16.2167 11.6959 16.45 11.2875C16.6833 10.8792 16.8 10.4417 16.8 9.97504C16.8 8.98337 16.4648 8.23982 15.7943 7.74437C15.1239 7.24893 14.3313 7.00082 13.4167 7.00004C12.5611 7.00004 11.8417 7.23843 11.2583 7.71521C10.675 8.19199 10.2667 8.77026 10.0333 9.45004L11.6667 10.0917C11.7639 9.76115 11.9486 9.43565 12.2208 9.11521C12.4931 8.79476 12.8917 8.63415 13.4167 8.63337C13.9417 8.6326 14.3356 8.77843 14.5985 9.07087C14.8614 9.36332 14.9924 9.68415 14.9917 10.0334C14.9917 10.3639 14.8944 10.6607 14.7 10.9235C14.5056 11.1864 14.2722 11.4536 14 11.725C13.3194 12.3084 12.9064 12.7704 12.761 13.111C12.6156 13.4517 12.5424 14.0592 12.5417 14.9334Z" fill="#333333"/>
</g>
</svg>
