<svg width="25" height="25" viewBox="0 0 25 25" fill="none" xmlns="http://www.w3.org/2000/svg">
<path d="M1.5625 4.6875C1.5625 5.1019 1.72712 5.49933 2.02015 5.79235C2.31317 6.08538 2.7106 6.25 3.125 6.25C3.5394 6.25 3.93683 6.08538 4.22985 5.79235C4.52288 5.49933 4.6875 5.1019 4.6875 4.6875C4.6875 4.2731 4.52288 3.87567 4.22985 3.58265C3.93683 3.28962 3.5394 3.125 3.125 3.125C2.7106 3.125 2.31317 3.28962 2.02015 3.58265C1.72712 3.87567 1.5625 4.2731 1.5625 4.6875ZM6.25 6.25H23.4375V3.125H6.25V6.25ZM23.4375 14.0625H6.25V10.9375H23.4375V14.0625ZM1.5625 12.5C1.5625 12.9144 1.72712 13.3118 2.02015 13.6049C2.31317 13.8979 2.7106 14.0625 3.125 14.0625C3.5394 14.0625 3.93683 13.8979 4.22985 13.6049C4.52288 13.3118 4.6875 12.9144 4.6875 12.5C4.6875 12.0856 4.52288 11.6882 4.22985 11.3951C3.93683 11.1021 3.5394 10.9375 3.125 10.9375C2.7106 10.9375 2.31317 11.1021 2.02015 11.3951C1.72712 11.6882 1.5625 12.0856 1.5625 12.5ZM23.4375 21.875H6.25V18.75H23.4375V21.875ZM1.5625 20.3125C1.5625 20.7269 1.72712 21.1243 2.02015 21.4174C2.31317 21.7104 2.7106 21.875 3.125 21.875C3.5394 21.875 3.93683 21.7104 4.22985 21.4174C4.52288 21.1243 4.6875 20.7269 4.6875 20.3125C4.6875 19.8981 4.52288 19.5007 4.22985 19.2076C3.93683 18.9146 3.5394 18.75 3.125 18.75C2.7106 18.75 2.31317 18.9146 2.02015 19.2076C1.72712 19.5007 1.5625 19.8981 1.5625 20.3125Z" fill="#333333" fill-opacity="0.75"/>
</svg>
