<svg width="20" height="22" viewBox="0 0 20 22" fill="none" xmlns="http://www.w3.org/2000/svg">
<g opacity="0.75">
<path fill-rule="evenodd" clip-rule="evenodd" d="M8.25465 3.54198C7.52723 3.72678 6.84784 4.01608 6.3746 4.41648C5.08258 5.51098 4.55663 6.99378 4.55663 9.66678C4.55663 11.572 3.40166 13.376 2.56998 14.5442C2.38959 14.7994 2.33337 15.0425 2.34391 15.1888C2.34859 15.2548 2.36499 15.2856 2.37202 15.2966C2.37671 15.3043 2.39076 15.3252 2.44699 15.3538C3.25758 15.7608 4.48049 16.0578 5.89434 16.2459C7.25523 16.4174 8.62691 16.5023 10 16.5C10.3107 16.5 10.6086 16.6159 10.8283 16.8222C11.048 17.0284 11.1714 17.3082 11.1714 17.6C11.1714 17.8917 11.048 18.1715 10.8283 18.3778C10.6086 18.5841 10.3107 18.7 10 18.7C8.67869 18.7 7.09031 18.6285 5.56518 18.425C4.06348 18.2237 2.5161 17.8827 1.34238 17.2942C0.479083 16.8608 0.0620744 16.1062 0.0070199 15.3373C-0.0468632 14.6124 0.214353 13.8963 0.62199 13.3232C1.46186 12.1418 2.21389 10.8383 2.21389 9.66678C2.21389 6.73968 2.7902 4.48908 4.80613 2.78298C5.65538 2.06358 6.7225 1.65328 7.63968 1.41898C8.40878 1.21869 9.20197 1.11149 10 1.09998C10.3107 1.09998 10.6086 1.21587 10.8283 1.42216C11.048 1.62845 11.1714 1.90824 11.1714 2.19998C11.1714 2.49171 11.048 2.7715 10.8283 2.97779C10.6086 3.18408 10.3107 3.29998 10 3.29998C9.64156 3.29998 8.97388 3.35718 8.25465 3.54198Z" fill="#333333"/>
<path fill-rule="evenodd" clip-rule="evenodd" d="M11.7453 3.54198C12.4728 3.72678 13.1522 4.01608 13.6254 4.41648C14.9174 5.51098 15.4434 6.99378 15.4434 9.66678C15.4434 11.572 16.5983 13.376 17.43 14.5442C17.6104 14.7994 17.6666 15.0425 17.6561 15.1888C17.6567 15.2264 17.647 15.2635 17.628 15.2966C17.6233 15.3043 17.6092 15.3252 17.553 15.3538C16.7424 15.7608 15.5195 16.0578 14.1056 16.2459C12.7448 16.4174 11.3731 16.5023 9.99999 16.5C9.68932 16.5 9.39138 16.6159 9.1717 16.8222C8.95203 17.0284 8.82861 17.3082 8.82861 17.6C8.82861 17.8917 8.95203 18.1715 9.1717 18.3778C9.39138 18.5841 9.68932 18.7 9.99999 18.7C11.3213 18.7 12.9085 18.6285 14.4348 18.425C15.9365 18.2237 17.4839 17.8827 18.6576 17.2942C19.5209 16.8608 19.9379 16.1062 19.993 15.3373C20.0468 14.6124 19.7856 13.8963 19.378 13.3232C18.5381 12.1418 17.7861 10.8383 17.7861 9.66678C17.7861 6.73968 17.2098 4.48908 15.1939 2.78298C14.3446 2.06358 13.2775 1.65328 12.3603 1.41898C11.5912 1.21869 10.798 1.11149 9.99999 1.09998C9.68932 1.09998 9.39138 1.21587 9.1717 1.42216C8.95203 1.62845 8.82861 1.90824 8.82861 2.19998C8.82861 2.49171 8.95203 2.7715 9.1717 2.97779C9.39138 3.18408 9.68932 3.29998 9.99999 3.29998C10.3584 3.29998 11.0261 3.35718 11.7453 3.54198Z" fill="#333333"/>
<path d="M13.1005 1.848C13.1005 2.6125 11.4653 1.8942 10.1721 1.8942C8.87889 1.8942 7.24365 2.6125 7.24365 1.8469C7.24365 1.0824 8.41502 0 10.1721 0C11.9291 0 13.1005 1.0824 13.1005 1.848Z" fill="#333333"/>
<path fill-rule="evenodd" clip-rule="evenodd" d="M7.6572 17.6C7.6572 18.1835 7.90402 18.743 8.34337 19.1556C8.78272 19.5682 9.37861 19.8 9.99994 19.8C10.6213 19.8 11.2172 19.5682 11.6565 19.1556C12.0959 18.743 12.3427 18.1835 12.3427 17.6H14.6854C14.6854 18.7669 14.1918 19.8861 13.3131 20.7112C12.4344 21.5364 11.2426 22 9.99994 22C8.75727 22 7.5655 21.5364 6.6868 20.7112C5.8081 19.8861 5.31445 18.7669 5.31445 17.6H7.6572Z" fill="#333333"/>
</g>
</svg>
